<svg width="32" height="32" viewBox="0 0 32 32" fill="none" xmlns="http://www.w3.org/2000/svg">
<path fill-rule="evenodd" clip-rule="evenodd" d="M32 2C32 0.895431 31.1046 0 30 0H2C0.895431 0 0 0.895431 0 2V30C0 31.1046 0.895431 32 2 32H30C31.1046 32 32 31.1046 32 30V2ZM26.6667 7.33333C26.6667 6.22876 25.7712 5.33333 24.6667 5.33333H7.33333C6.22876 5.33333 5.33333 6.22877 5.33333 7.33334V24.6667C5.33333 25.7712 6.22877 26.6667 7.33334 26.6667H24.6667C25.7712 26.6667 26.6667 25.7712 26.6667 24.6667V7.33333Z" fill="#465670"/>
<path fill-rule="evenodd" clip-rule="evenodd" d="M15 8C14.4477 8 14 8.44771 14 9V14H9C8.44771 14 8 14.4477 8 15V17C8 17.5523 8.44771 18 9 18H14V23C14 23.5523 14.4477 24 15 24H17C17.5523 24 18 23.5523 18 23V18H23C23.5523 18 24 17.5523 24 17V15C24 14.4477 23.5523 14 23 14H18V9C18 8.44771 17.5523 8 17 8H15Z" fill="#465670"/>
</svg>
