<svg width="14" height="14" viewBox="0 0 14 14" fill="none" xmlns="http://www.w3.org/2000/svg">
<path d="M6.98906 0C3.33594 0 0.339063 1.30156 0.0109375 2.96406L3.90469 3.69687C4.22188 3.59844 4.58281 3.55469 4.95469 3.55469L6.78125 2.46094C6.75937 2.1875 6.92344 1.90313 7.29531 1.67344C7.82031 1.33438 8.64062 1.14844 9.47187 1.14844C10.0406 1.1375 10.6203 1.225 11.1125 1.38906C12.3375 1.80469 12.6109 2.60313 11.7359 3.17188C11.1781 3.53281 10.2813 3.71875 9.39531 3.69687L6.98906 4.56094C6.96719 4.73594 6.84687 4.9 6.61719 5.05313C5.97187 5.46875 4.71406 5.56719 3.81719 5.26094C3.42344 5.12969 3.16094 4.93281 3.05156 4.73594L0.273438 4.2C0.525 4.59375 0.929688 4.95469 1.45469 5.27188C0.546875 5.79688 0 6.45312 0 7.16406C0 7.86406 0.525 8.50937 1.41094 9.03437C0.525 9.54844 0 10.1937 0 10.8937C0 12.6109 3.12812 14 7 14C10.8609 14 14 12.6109 14 10.8937C14 10.1937 13.475 9.54844 12.5891 9.03437C13.475 8.50937 14 7.86406 14 7.16406C14 6.45312 13.4531 5.78594 12.5344 5.26094C13.4422 4.70312 13.9891 4.01406 13.9891 3.27031C13.9891 1.46562 10.85 0 6.98906 0ZM9.48281 1.55312C8.91406 1.56406 8.36719 1.68438 8.01719 1.91406C7.41563 2.30781 7.60156 2.84375 8.43281 3.12813C9.26406 3.4125 10.4125 3.325 11.0141 2.93125C11.6156 2.5375 11.4297 2.00156 10.5984 1.72813C10.2594 1.61875 9.86562 1.56406 9.48281 1.56406V1.55312ZM9.51562 1.73906C10.325 1.73906 10.9703 2.04531 10.9703 2.41719C10.9703 2.78906 10.325 3.09531 9.51562 3.09531C8.70625 3.09531 8.06094 2.78906 8.06094 2.41719C8.06094 2.04531 8.70625 1.73906 9.51562 1.73906ZM4.95469 3.7625C4.77969 3.77344 4.61563 3.78437 4.45156 3.80625L5.44687 3.99219C5.59114 4.01912 5.72254 4.05894 5.83356 4.10938C5.94458 4.15982 6.03306 4.21989 6.09393 4.28616C6.15481 4.35243 6.1869 4.42361 6.18836 4.49562C6.18983 4.56763 6.16064 4.63907 6.10247 4.70586C6.0443 4.77265 5.95828 4.83348 5.84933 4.88488C5.74038 4.93628 5.61063 4.97724 5.46748 5.00542C5.32434 5.03361 5.1706 5.04846 5.01506 5.04914C4.85951 5.04982 4.7052 5.03631 4.56094 5.00937L3.5875 4.82344C3.69687 4.92187 3.85 5.00938 4.05781 5.08594C4.75781 5.32656 5.74219 5.25 6.24531 4.92188C6.74844 4.59375 6.59531 4.13438 5.89531 3.90469C5.61094 3.80625 5.27187 3.7625 4.95469 3.7625V3.7625ZM11.9219 5.57812V6.59531C11.9219 7.79844 9.7125 8.77187 7 8.77187C4.27656 8.77187 2.07812 7.79844 2.07812 6.59531V5.58906C3.33594 6.16875 5.075 6.52969 6.98906 6.52969C8.91406 6.52969 10.6641 6.16875 11.9328 5.57812H11.9219ZM11.9219 9.3625V10.325C11.9219 11.5281 9.7125 12.5016 7 12.5016C4.27656 12.5016 2.07812 11.5281 2.07812 10.325V9.3625C3.34688 9.92031 5.075 10.2594 7 10.2594C8.925 10.2594 10.6641 9.92031 11.9219 9.3625V9.3625Z" fill="#465670"/>
</svg>
